<?xml version="1.0" encoding="UTF-8"?>
<svg width="622px" height="308px" viewBox="0 0 622 308" version="1.1" xmlns="http://www.w3.org/2000/svg" xmlns:xlink="http://www.w3.org/1999/xlink">
    <!-- Generator: Sketch 59.1 (86144) - https://sketch.com -->
    <title>20295</title>
    <desc>Created with Sketch.</desc>
    <g id="Home" stroke="none" stroke-width="1" fill="none" fill-rule="evenodd" opacity="0.10">
        <g id="Tablet-Light" transform="translate(-98.000000, -668.000000)" fill="#1A1A1A">
            <g id="20295" transform="translate(98.000000, 668.000000)">
                <path d="M381.822656,134.942848 C381.158336,135.169408 376.227008,135.332224 379.788224,134.111872 C380.165312,133.98208 383.37632,134.412928 381.822656,134.942848 Z M378.650048,147.75616 C378.183872,147.749248 378.104,147.611008 378.414272,147.340672 C378.881216,147.34528 378.957248,147.48352 378.650048,147.75616 Z M371.662784,137.07712 C371.943872,136.824448 372.289472,136.694656 372.700352,136.688512 C376.251584,137.72608 370.415552,139.460224 371.662784,137.07712 Z M346.429376,145.474432 C347.466176,143.730304 348.6896,143.539072 350.0912,144.898432 C348.943808,146.46976 347.72192,146.660992 346.429376,145.474432 Z M341.816,149.932672 C344.228288,148.611712 346.403264,148.637824 348.334784,150.011776 C349.683392,151.871872 337.617344,152.223616 341.816,149.932672 Z M334.932416,123.914368 C334.305728,124.594048 326.105024,129.778048 326.869952,125.558656 C327.118784,124.19392 334.245056,123.903616 334.932416,123.914368 C334.954688,123.8944 334.972352,123.870592 334.99232,123.84832 L335.082176,123.90976 C335.031488,123.90976 334.983872,123.916672 334.932416,123.914368 Z M325.31168,117.219712 C323.49536,117.65056 321.893312,117.637504 320.888,116.371072 C321.481664,116.156032 322.090688,115.957888 322.662848,115.722112 C324.2672,115.063168 326.188736,115.126912 325.31168,117.219712 Z M346.651328,125.086336 C348.008384,125.140864 348.709568,125.732224 348.750272,126.853504 C347.834048,126.750592 346.91936,126.645376 346.004672,126.541696 C345.903296,125.994112 345.411776,125.305984 346.651328,125.086336 Z M285.762752,176.243584 L286.117568,175.993216 L286.284224,176.298112 L285.762752,176.243584 Z M408.975296,141.72352 C396.57056,138.3328 384.810176,132.708736 372.423872,129.131392 C353.531072,123.672448 334.875584,115.610752 315.94976,110.885248 C305.286848,96.121984 294.462656,81.296512 284.705216,65.919616 C284.441792,66.031744 284.144576,66.126208 283.786688,66.18304 C283.845824,66.21376 283.877312,66.246784 283.94336,66.275968 L283.634624,66.216064 C283.691456,66.20992 283.731392,66.192256 283.786688,66.18304 C282.858176,65.302144 282.750656,64.597888 283.458752,64.070272 C281.94656,61.959808 280.44512,59.840896 278.92064,57.73888 C277.518272,57.440128 276.41696,57.99616 275.20736,58.609024 C300.742592,91.797376 324.667328,126.917248 346.701248,162.491008 C311.58368,169.929088 276.322496,177.114496 240.880832,183.028096 C240.860864,184.492672 237.6752,184.772224 237.468608,183.478912 C233.963456,183.835264 230.496704,184.169344 227.025344,184.78912 C228.504512,172.864384 226.8848,160.732288 228.157376,148.752256 C226.743488,148.204672 225.49472,147.393664 224.413376,146.318464 C223.927232,155.343232 220.263872,176.577664 224.848064,185.187712 C220.32992,186.024832 215.4032,186.442624 211.047872,187.836544 C204.46688,185.222272 197.022656,184.20928 190.182848,182.436736 C190.73888,183.782272 191.359424,185.099392 192.04064,186.385792 C195.464384,187.280512 198.928832,188.003968 202.407872,188.645248 C203.432384,187.935616 204.594368,187.326592 206.11424,186.990208 C206.120384,187.75744 206.124992,188.524672 206.128832,189.294208 C208.426688,189.958528 210.697664,189.986944 212.944832,189.380224 C248.854976,192.251776 288.867776,178.228864 323.38784,170.736256 C323.728832,169.60192 325.368512,169.77088 326.105024,170.15104 C359.446976,162.950272 395.784128,158.164096 427.818944,146.459008 C416.067776,155.98144 407.992256,171.478912 399.729344,183.793792 C389.414336,199.170688 378.782144,214.18048 368.118464,229.273984 C368.301248,229.572736 368.481728,229.869952 368.66144,230.1664 C369.204416,230.298496 369.745088,230.430592 370.288064,230.560384 C379.09856,217.443712 389.442752,205.381504 398.388416,192.341632 C398.19488,192.032128 398.089664,191.704192 398.074304,191.35936 C398.350784,191.43616 398.6288,191.51296 398.902976,191.58976 C403.90112,184.314496 431.713472,155.376256 430.479296,145.34464 C430.83104,145.161856 413.710784,143.016064 408.975296,141.72352 L408.975296,141.72352 Z" id="Fill-5"></path>
                <path d="M234.056384,2.687872 C233.825216,2.303104 233.832128,2.084992 234.076352,2.035072 C234.183872,2.019712 234.409664,2.008192 234.548672,1.995136 C234.794432,2.571136 234.630848,2.802304 234.056384,2.687872 Z M236.675264,1.003648 C235.124672,0.02752 233.73536,0.159616 232.508096,1.403776 C232.589504,-0.612224 222.621632,12.675712 221.856704,13.742464 C216.104384,21.756544 210.70688,29.908864 205.386176,38.21248 C198.262976,49.33312 190.809536,60.610432 183.03968,71.304064 C183.98048,71.629696 184.81376,72.078208 185.553344,72.638848 C185.69312,72.432256 185.832128,72.229504 185.972672,72.025216 C198.437312,54.308224 210.031808,35.937664 222.72224,18.326656 L222.726848,18.27136 L222.755264,18.279808 C223.498688,17.249152 224.23904,16.215424 224.947136,15.160192 C222.28064,14.73856 225.19136,13.696384 225.894848,13.704832 C227.574464,11.005312 229.362368,8.342656 230.850752,5.53024 C220.912832,49.750912 218.188736,100.309888 217.29632,145.439104 C218.545088,145.39072 219.774656,145.223296 220.983488,144.942208 C223.514048,118.473088 225.030848,91.974784 228.953024,65.627008 C229.45376,91.07392 226.705856,118.552192 224.576192,143.939968 C226.013888,143.459968 227.41856,142.932352 228.814784,142.389376 C228.882368,141.54304 228.953024,140.6944 229.021376,139.844992 C231.969728,103.36576 236.047808,66.915712 238.187456,30.337408 C234.243776,33.16288 231.892928,25.511296 229.724864,26.21248 C238.417856,23.403136 233.899712,25.091968 238.314176,28.1632 C238.794176,20.230528 238.3472,12.662656 237.906368,4.767616 C245.256128,22.715008 260.29664,39.428224 272.00864,54.477952 C273.035456,53.842816 274.469312,53.715328 275.831744,53.504128 C267.78464,42.544 259.922624,31.401088 252.049856,20.316544 C248.9648,15.971968 236.901824,2.584192 236.675264,1.003648 L236.675264,1.003648 Z" id="Fill-6"></path>
                <path d="M220.822976,146.637184 C219.624128,146.65024 218.439872,146.795392 217.267904,147.070336 C217.23488,149.915008 217.96064,178.424704 219.670976,178.044544 C222.55328,177.430912 220.36064,151.429504 220.822976,146.637184" id="Fill-7"></path>
                <path d="M368.118464,229.276288 C365.816768,232.536448 363.445952,235.779712 361.241024,239.108224 C362.376128,239.123584 363.50816,239.1328 364.640192,239.138944 C366.546368,236.295808 368.378048,233.402752 370.288064,230.562688 C369.745088,230.430592 369.204416,230.298496 368.66144,230.168704 C368.481728,229.869952 368.298176,229.572736 368.118464,229.276288" id="Fill-8"></path>
                <path d="M187.837376,185.255296 C187.547072,185.127808 187.235264,185.04256 186.905024,184.987264 C187.212224,185.075584 187.533248,185.170048 187.837376,185.255296" id="Fill-9"></path>
                <path d="M70.926272,224.626048 C73.078976,227.297152 75.174848,229.942144 77.475776,232.490368 C80.14688,233.53024 83.926976,239.53216 85.800128,241.665664 C86.13344,241.46752 86.34464,241.40608 86.437568,241.491328 C86.534336,241.584256 86.481344,241.84768 86.293952,242.226304 C89.696192,245.965696 92.696768,249.894016 95.816384,253.856896 C97.593536,254.157952 99.32384,254.672512 101.064128,255.121024 C92.156096,244.180096 81.815744,234.521728 73.098176,223.460224 C72.441536,223.974784 71.71808,224.361856 70.926272,224.626048" id="Fill-10"></path>
                <path d="M83.937728,148.118656 C85.606592,146.627968 85.800128,146.624128 88.062656,148.081792 C88.062656,148.081792 88.071872,148.085632 88.074944,148.087936 C86.694848,148.099456 85.316288,148.107904 83.937728,148.118656 Z M88.048832,144.575104 C86.180288,144.126592 85.48064,143.187328 85.363904,142.002304 C87.20864,142.460032 87.90368,143.403136 88.048832,144.575104 Z M34.987712,144.337024 C32.800448,144.170368 32.34272,143.473024 33.61376,142.248832 C35.214272,142.473088 35.672,143.170432 34.987712,144.337024 Z M23.497664,139.58848 C21.692864,142.567552 16.594112,137.218432 18.924224,136.707712 C19.918784,136.707712 24.669632,137.65312 23.497664,139.58848 Z M124.512704,130.853248 C125.961152,131.403136 125.963456,131.963776 124.517312,132.53056 C123.048128,131.98144 123.04736,131.4208 124.512704,130.853248 Z M125.68928,152.439424 C127.210688,154.4992 181.742528,78.189952 184.761536,73.790848 C183.393728,73.687168 182.131904,74.70784 180.924608,74.20864 C171.468224,87.193216 162.355136,100.448896 152.800448,113.367424 C104.883392,126.603136 52.636352,129.380224 3.36992,137.252992 C3.36992,137.252992 3.783104,137.34592 4.532672,137.510272 C4.200128,137.491072 -0.812608,137.486464 0.9008,138.468736 C1.916096,151.33504 18.229952,166.40704 26.101184,175.364224 C40.362944,191.592064 55.485632,207.024256 69.73664,223.216768 C70.587584,222.871168 71.379392,222.600832 72.287168,222.477952 C49.088192,194.833024 25.698752,167.431552 3.038144,139.357312 C27.912128,148.05952 56.367296,150.337408 81.992384,156.264832 C113.67776,163.596928 146.412992,171.608704 177.239744,181.971328 C177.244352,181.52896 177.294272,181.082752 177.396416,180.63424 L176.912576,180.740224 L176.997824,180.40768 L177.396416,180.63424 C177.294272,181.082752 177.244352,181.52896 177.239744,181.971328 C178.701248,182.463616 180.177344,183.085696 181.671872,183.459712 C181.99136,182.575744 182.468288,181.81696 183.104192,181.184128 C183.18944,181.001344 183.157952,180.83008 183.011264,180.662656 C183.083456,180.623488 183.144896,180.590464 183.213248,180.552832 C160.015808,173.976448 136.422848,168.651904 113.35136,161.63776 C116.030912,162.273664 117.846464,162.704512 117.846464,162.704512 L125.68928,152.439424 L125.68928,152.439424 Z" id="Fill-11"></path>
                <path d="M296.29664,244.16704 C295.3136,243.428224 294.186176,244.222336 294.329024,245.312896 C295.164608,245.198464 296.001728,245.106304 296.841152,245.035648 C296.786624,244.6816 296.606144,244.3936 296.29664,244.16704" id="Fill-12"></path>
                <path d="M237.222848,179.425408 C238.053824,183.206272 238.866368,178.615936 238.91936,177.86176 C238.218176,177.534592 237.501632,177.186688 236.82656,176.793472 C236.943296,177.874816 237.081536,178.761088 237.222848,179.425408" id="Fill-13"></path>
                <path d="M239.652032,111.142528 C239.54144,111.312256 239.390144,111.481216 239.22272,111.64864 C239.073728,112.206976 239.082176,112.80448 238.745792,113.312896 C238.367936,113.87968 238.194368,114.614656 237.70976,115.155328 C237.655232,134.705536 235.63232,154.34944 236.61536,173.89504 C237.462464,174.051712 238.281152,174.24448 239.055296,174.495616 C239.187392,169.990528 239.040704,165.470848 239.095232,160.963456 C238.783424,160.505728 238.788032,160.092544 239.11136,159.72544 C239.286464,149.189248 238.264256,138.435712 239.064512,127.940224 C238.941632,127.973248 238.821056,128.005504 238.699712,128.038528 C238.809536,127.898752 238.937024,127.783552 239.079872,127.691392 C239.517632,122.188672 239.853248,116.66368 239.652032,111.142528" id="Fill-14"></path>
                <path d="M239.240384,57.751936 C239.181248,57.222016 239.662784,56.92096 240.390848,56.881024 C242.145728,56.78656 240.761792,58.277248 239.240384,57.751936 Z M240.682688,26.608768 C235.938752,52.943488 236.199872,83.231872 237.437888,109.808512 C237.950144,109.696384 238.507712,109.687168 239.02304,109.88992 C239.302592,109.999744 239.486912,110.118016 239.6144,110.241664 C239.623616,103.427968 240.542144,96.671872 240.775616,89.866624 C239.519936,89.554816 239.404736,88.475008 239.625152,87.577984 C240.029888,87.66784 240.433856,87.763072 240.83936,87.857536 C241.509824,67.357312 242.88608,46.840192 243.1472,26.356096 C242.363072,26.7424 241.540544,26.826112 240.682688,26.608768 L240.682688,26.608768 Z" id="Fill-15"></path>
                <path d="M241.41536,23.354752 C242.081216,23.612032 242.664128,24.022912 243.16256,24.58816 C243.307712,23.235712 243.11264,21.93856 242.580416,20.692096 C242.004416,21.503872 241.614272,22.39168 241.41536,23.354752" id="Fill-16"></path>
                <path d="M247.107776,87.914368 C247.520192,87.604096 247.496384,87.088 247.03712,86.366848 C247.058624,86.874496 247.082432,87.399808 247.107776,87.914368" id="Fill-17"></path>
                <path d="M249.848768,128.60608 C248.635328,127.8304 248.301248,126.567808 248.84576,124.816 C249.25664,124.576384 249.655232,124.3936 250.042304,124.25536 C249.976256,113.838208 250.192064,103.43872 250.059968,93.023872 C248.831168,93.740416 248.137664,93.927808 247.346624,93.633664 C247.646144,101.394304 246.508736,175.091584 249.50624,175.278595 C251.857856,175.431808 249.787328,129.848704 249.848768,128.60608" id="Fill-18"></path>
                <path d="M248.894912,72.704896 C248.971712,72.628096 249.215936,72.616576 249.384128,72.577408 C251.390144,73.023616 247.872704,73.733248 248.894912,72.704896 Z M249.527744,34.64896 C244.8368,34.409344 246.900416,81.890944 246.96416,84.04288 C247.944128,83.87392 248.934848,83.80096 249.93632,83.825536 C249.930176,81.791872 251.009984,34.719616 249.527744,34.64896 L249.527744,34.64896 Z" id="Fill-19"></path>
                <path d="M257.339072,123.90592 C257.53568,122.940544 258.034112,122.221696 258.836672,121.747072 C258.803648,117.164416 258.319808,112.648576 258.33056,108.05824 L258.272192,108.020608 C257.507264,108.13504 256.743872,108.267136 255.978176,108.39232 C256.1456,114.115456 256.928192,119.761024 256.945856,125.497216 C256.976576,125.510272 257.007296,125.524096 257.038016,125.537152 C256.950464,128.265088 256.231616,172.849024 259.32512,172.941249 C261.277376,173.004928 258.88736,126.119296 258.858176,123.66784 C258.37664,123.773824 257.865152,123.846016 257.339072,123.90592" id="Fill-20"></path>
                <path d="M255.53888,92.526976 C255.697088,95.154304 255.846848,97.781632 255.982784,100.411264 C256.092608,102.115456 255.932096,103.812736 255.921344,105.51616 C256.75232,105.473152 257.576384,105.4048 258.3728,105.252736 C258.574784,101.418112 258.531776,97.661056 258.408128,93.822592 C257.486528,93.303424 256.532672,92.870272 255.53888,92.526976" id="Fill-21"></path>
                <path d="M256.82912,40.6330965 C252.093632,40.545664 255.290048,88.58944 255.371456,89.87968 C256.263872,90.57472 257.249984,91.080064 258.32672,91.397248 C258.300608,90.638464 258.33056,40.660096 256.82912,40.6330965" id="Fill-22"></path>
                <path d="M269.22464,160.477312 C268.32608,160.233088 267.4928,159.929728 266.77088,159.549568 C266.729408,159.13408 267.094976,168.287104 268.677824,168.308654 C270.0848,168.328576 269.603264,161.9104 269.504192,160.499584 C269.396672,160.50112 269.2976,160.49728 269.22464,160.477312" id="Fill-23"></path>
                <path d="M263.87168,49.7401578 C259.17536,49.729408 262.76576,88.308352 262.927808,90.454144 C263.751104,89.721472 264.733376,89.262208 265.876928,89.075584 C265.790912,87.111808 265.287872,49.742464 263.87168,49.7401578" id="Fill-24"></path>
                <path d="M265.06976,94.824832 C264.485312,94.899328 263.895488,94.965376 263.308736,95.038336 C263.757248,99.784576 263.857856,104.465536 264.13664,109.201792 C264.641216,109.300096 265.080512,109.475968 265.329344,109.885312 C264.953024,109.988224 264.572864,110.056576 264.188096,110.094208 C265.049792,125.387392 266.353856,140.583808 266.595776,155.937664 C267.549632,155.871616 268.446656,156.126592 269.285312,156.700288 C268.653248,135.90976 267.432896,114.867328 266.120384,94.096768 C265.767104,94.337152 265.416896,94.580608 265.06976,94.824832" id="Fill-25"></path>
                <path d="M279.215552,166.547584 C279.332288,161.855872 278.826176,157.153408 278.9168,152.450176 C277.174976,151.113088 277.009856,149.224576 278.422208,146.780032 C275.1728,120.297856 276.513728,93.265792 273.61376,66.763648 C272.63072,66.581632 271.65536,66.355072 270.588608,66.108544 C270.206144,74.278528 270.84128,82.066048 271.656128,90.222976 C271.976384,90.291328 272.294336,90.355072 272.609216,90.427264 C272.316608,90.643072 272.024,90.858112 271.733696,91.07392 C272.294336,97.355392 276.594368,171.169408 278.230976,171.215488 C279.2048,170.184064 279.525824,168.919936 279.194048,167.418496 C278.934464,167.171968 278.940608,166.882432 279.215552,166.547584" id="Fill-26"></path>
                <path d="M270.61472,65.448832 C271.818944,65.009536 272.788928,64.607104 272.50784,63.577984 C272.068544,62.705536 272.23904,62.017408 273.02624,61.5136 C272.395712,56.465536 270.684608,63.720832 270.61472,65.448832" id="Fill-27"></path>
                <path d="M282.38816,70.1059794 C276.75488,70.14976 283.863488,137.800576 284.358848,144.172672 C285.034688,144.049024 285.716672,143.98528 286.4048,143.98144 C285.473216,134.973568 284.217536,70.086016 282.38816,70.1059794" id="Fill-28"></path>
                <path d="M286.572224,149.571712 C286.91936,150.011776 286.99232,150.45184 286.545344,150.884224 C286.0208,150.93952 285.497024,150.994816 284.973248,151.049344 C285.105344,151.977088 285.176,152.90944 285.186752,153.848704 C285.296576,153.751936 285.404864,153.655168 285.514688,153.5584 C285.808832,153.964672 285.609152,154.147456 285.169088,154.221952 C285.057728,158.20864 285.000128,162.101632 285.461696,166.07296 C287.67584,166.221952 287.744192,166.804864 285.664448,167.820928 C285.741248,168.471424 286.110656,171.776128 287.158976,171.776128 C289.362368,171.779968 286.776512,146.866048 286.638272,145.880704 C284.544704,147.190912 284.458688,147.542656 286.572224,149.571712" id="Fill-29"></path>
                <path d="M290.472128,82.5920734 C288.465344,82.675072 288.148928,92.748928 288.197312,94.631296 C288.333248,99.626368 294.938048,170.036608 296.445632,170.023552 C296.947136,170.019712 292.313024,82.512256 290.472128,82.5920734" id="Fill-30"></path>
                <path d="M304.116416,156.51136 C303.637952,155.17888 304.0688,154.378624 305.414336,154.108288 C305.173952,147.415168 299.662784,94.066048 299.34176,94.0775661 C296.901824,94.156672 296.804288,103.977088 297.092288,105.947776 C297.67904,109.962112 303.167168,164.281216 305.02112,164.229797 C306.772928,164.188288 305.627072,157.36384 305.557184,156.328576 C305.106368,156.432256 304.634048,156.504448 304.116416,156.51136" id="Fill-31"></path>
                <path d="M310.49312,155.43616 C310.483904,155.713408 310.455488,155.987584 310.413248,156.271744 C310.195904,157.836928 309.857216,165.441664 312.202688,165.424031 C313.865408,165.410944 313.00832,155.917696 312.87008,154.842496 C312.069824,155.031424 311.27264,155.227264 310.49312,155.43616" id="Fill-32"></path>
                <path d="M308.20832,108.438392 C302.247872,108.519808 309.09536,146.578048 309.903296,151.102336 C310.642112,151.19296 311.379392,151.28512 312.11744,151.370368 C312.018368,150.952576 311.913152,150.537088 311.836352,150.123904 C310.94624,145.111168 309.591488,108.4192 308.20832,108.438392" id="Fill-33"></path>
                <path d="M316.293056,120.926798 C314.157248,121.05664 313.571264,126.618496 313.962176,128.254336 C314.638784,131.1328 319.861184,163.168384 321.563072,163.071835 C322.664384,163.010176 317.153216,120.873856 316.293056,120.926798" id="Fill-34"></path>
                <path d="M324.108992,132.865408 C322.294976,133.128832 321.477824,137.154688 321.992384,138.65152 C323.827904,144.19648 325.164224,149.809792 326.520512,155.326336 C326.876864,155.293312 327.233216,155.257984 327.589568,155.227264 C327.798464,154.797952 327.982784,154.354048 328.26464,153.962368 C328.422848,151.986304 325.076672,132.724096 324.108992,132.865408" id="Fill-35"></path>
                <path d="M327.69632,155.732608 C327.670976,155.563648 327.633344,155.394688 327.589568,155.227264 C327.233216,155.257984 326.876864,155.293312 326.520512,155.326336 C326.87456,156.691072 327.169472,164.914048 329.387456,164.793472 C331.902656,164.656768 328.930496,156.33088 328.686272,155.627392 C328.380608,155.684224 328.058048,155.726464 327.69632,155.732608" id="Fill-36"></path>
                <path d="M333.149888,145.546624 C332.351168,144.781696 327.859904,143.04448 329.866688,146.900608 C330.779072,148.690816 334.301888,154.143616 333.976256,155.963776 C334.026176,155.93536 334.077632,155.906944 334.1168,155.880064 C335.168192,156.1504 334.280384,156.605824 333.94784,156.462976 C336.663488,166.0576 336.490688,160.48192 335.588288,154.121344 C335.35712,152.496256 334.473152,146.817664 333.149888,145.546624" id="Fill-37"></path>
                <path d="M209.948096,193.571169 C209.49344,193.520512 204.433856,256.123264 204.519872,260.751232 C205.482944,260.659072 206.446016,260.550784 207.406784,260.427904 C207.58112,259.781248 207.730112,259.128448 207.850688,258.468736 C210.759872,242.63488 209.442752,225.657472 210.140096,209.527936 L210.133952,209.527936 C209.693888,209.079424 209.253824,208.633216 208.811456,208.189312 C209.139392,208.024192 209.809856,207.714688 210.13088,207.538816 C210.08864,205.643392 212.99168,193.89376 209.948096,193.571169" id="Fill-38"></path>
                <path d="M198.597824,220.079488 C198.821312,225.056896 197.9312,230.22784 197.786048,235.172224 C198.61472,234.81664 199.0832,234.911104 198.309824,235.717504 C198.133184,235.596928 197.957312,235.476352 197.78144,235.355008 C197.547968,242.905216 194.331584,254.067328 195.708608,261.597568 C196.235456,261.556096 196.76768,261.507712 197.306048,261.461632 C198.001088,260.675968 198.478016,259.779712 198.7376,258.77056 C202.587584,246.324352 200.947136,231.213184 200.486336,218.293888 C200.03936,219.173248 199.410368,219.766912 198.597824,220.079488" id="Fill-39"></path>
                <path d="M198.878144,200.470109 C196.6448,200.443264 198.249152,215.910784 198.339776,216.746368 C198.997184,216.636544 199.685312,216.56128 200.411072,216.528256 C200.367296,215.864704 200.2928,215.218048 200.29664,214.602112 C200.328128,213.0016 201.5984,200.500864 198.878144,200.470109" id="Fill-40"></path>
                <path d="M189.369536,255.5872 C189.572288,255.457408 189.774272,255.32992 189.976256,255.200128 C190.10144,255.40672 190.228928,255.613312 190.356416,255.819904 C190.029248,255.743104 189.699776,255.664 189.369536,255.5872 Z M188.389568,252.106624 C188.017088,251.550592 187.725248,250.989184 187.500224,250.424704 C187.235264,254.298496 187.076288,258.4672 187.256768,262.314112 C187.98176,262.24192 188.709824,262.175872 189.437888,262.118272 C189.780416,261.630592 190.000832,261.08992 190.095296,260.491648 C190.956224,257.004928 190.809536,254.571136 190.795712,250.965376 C190.186688,251.423104 189.38336,251.80096 188.389568,252.106624 L188.389568,252.106624 Z" id="Fill-41"></path>
                <path d="M189.841856,242.320768 C189.334976,242.388352 188.824256,242.456704 188.312,242.52736 C188.727488,242.18176 189.24896,242.137984 189.841856,242.320768 Z M189.235136,212.34496 C187.228352,212.175232 187.709888,241.419136 187.648448,244.987264 C188.659136,244.967296 189.6752,244.934272 190.582976,245.143168 C190.182848,238.615936 190.446272,232.176256 190.075328,225.690496 C189.943232,225.734272 189.808832,225.775744 189.6752,225.821824 C189.716672,224.696704 189.761216,223.57312 189.802688,222.449536 C189.837248,222.444928 189.873344,222.442624 189.907904,222.438016 C189.77888,220.824448 192.22112,212.593024 189.235136,212.34496 L189.235136,212.34496 Z" id="Fill-42"></path>
                <path d="M178.273472,220.694656 C176.061632,220.428928 176.491712,249.529984 176.491712,252.383872 C176.905664,252.110464 177.404864,251.87392 178.035392,251.692672 C178.27424,251.035264 178.49312,250.365568 179.066048,249.895552 C179.148224,249.828736 179.23808,249.76576 179.335616,249.707392 C179.23808,249.76576 179.148224,249.828736 179.066048,249.895552 C178.49312,250.365568 178.275008,251.035264 178.037696,251.692672 C178.314176,252.629632 178.880192,253.335424 179.730368,253.808512 C179.678144,250.81792 179.258048,220.813696 178.273472,220.694656" id="Fill-43"></path>
                <path d="M176.397248,255.428224 C176.28128,257.794432 176.074688,260.993152 176.37344,263.314816 C177.367232,263.24032 178.361024,263.161216 179.354816,263.0752 C179.451584,262.549888 179.559872,262.026112 179.680448,261.505408 C180.29792,259.6192 180.139712,258.154624 179.832512,256.173952 C178.6352,255.826816 177.787328,255.562624 176.397248,255.428224" id="Fill-44"></path>
                <path d="M168.8432,242.201728 C169.21952,242.155648 169.58432,242.087296 169.942976,242.008192 C169.854656,240.631936 170.969024,231.685504 168.61664,231.562585 C167.857856,231.523456 166.76576,261.153664 166.983872,263.668864 C168.016832,263.648896 169.05056,263.618176 170.08352,263.576704 C170.180288,263.27488 170.285504,262.976128 170.397632,262.681984 C172.882112,257.825152 170.363072,247.464832 169.942976,242.008192 C169.58432,242.087296 169.21952,242.155648 168.8432,242.201728" id="Fill-45"></path>
                <path d="M158.019776,237.853312 C155.478464,241.744768 155.642816,259.232128 155.73344,263.811712 C156.69344,263.822464 157.806272,263.83168 159.077312,263.822464 C159.16256,263.58976 159.29312,263.37856 159.464384,263.191936 C161.710784,260.146816 159.17024,251.772544 159.268544,248.052352 C159.305408,246.66688 161.210048,232.9696 158.019776,237.853312" id="Fill-46"></path>
                <path d="M147.365312,247.632256 C146.257088,249.100672 146.85536,261.5584 147.332288,263.312512 C148.523456,263.466112 149.72,263.583616 150.918848,263.661952 C150.861248,263.416192 150.77984,263.178112 150.67616,262.950016 C150.206144,260.351104 149.054144,245.398144 147.365312,247.632256" id="Fill-47"></path>
                <path d="M136.941248,253.289344 C135.604928,254.935936 137.099456,259.57696 136.8368,261.66976 C137.759168,261.821824 138.680768,261.976192 139.602368,262.132096 C139.53632,262 139.47872,261.863296 139.43264,261.725056 C139.050176,260.898688 139.265216,250.4224 136.941248,253.289344" id="Fill-48"></path>
                <path d="M217.12736,198.48637 C215.404736,198.504064 216.32864,207.332224 216.216512,208.37824 C216.986048,208.494976 217.757888,208.609408 218.527424,208.725376 C217.757888,208.609408 216.986048,208.494976 216.216512,208.380544 C214.470848,224.196736 213.791936,243.654784 214.07072,259.599232 C214.757312,259.502464 215.451584,259.403392 216.14432,259.302016 C216.627392,258.659968 216.970688,257.950336 217.179584,257.170048 C218.783168,252.229504 221.112512,198.44032 217.12736,198.48637" id="Fill-49"></path>
                <path d="M225.450176,206.624128 C226.027712,206.979712 226.45856,207.434368 226.789568,207.954304 C226.440896,205.62112 225.976256,204.084352 225.450176,206.624128" id="Fill-50"></path>
                <path d="M226.870976,227.191936 C226.814144,222.946432 227.790272,218.272384 227.425472,214.101376 C227.384768,213.638272 227.2112,211.264384 226.944704,209.099392 C226.302656,209.205376 225.705152,209.216128 225.140672,209.143168 C225.090752,225.2896 226.086848,241.737856 225.510848,257.8912 C226.693568,257.708416 227.881664,257.521792 229.08512,257.325952 C229.080512,256.813696 229.030592,256.306048 228.933824,255.80224 C227.75264,246.391936 227.000768,236.6368 226.870976,227.191936" id="Fill-51"></path>
                <path d="M226.789568,207.954304 C226.844096,208.321408 226.894784,208.706944 226.944704,209.099392 C227.064512,209.079424 227.182784,209.062528 227.305664,209.035648 C227.181248,208.643968 227.001536,208.288384 226.789568,207.954304" id="Fill-52"></path>
                <path d="M236.059328,209.358976 C233.7008,209.48416 236.595392,224.62144 236.705216,225.30112 C237.396416,225.404032 238.086848,225.507712 238.776512,225.610624 C238.71968,225.107584 238.664384,224.60224 238.609856,224.109184 C238.436288,222.702208 238.64672,209.213824 236.059328,209.358976" id="Fill-53"></path>
                <path d="M238.809536,249.371008 C238.502336,249.098368 238.578368,248.960128 239.045312,248.95552 C239.352512,249.225856 239.275712,249.367168 238.809536,249.371008 Z M239.96,241.284736 C238.530752,240.458368 237.704384,239.235712 237.477824,237.617536 C237.251264,243.672448 237.468608,249.801856 237.56768,255.881344 C238.726592,255.677056 239.904704,255.463552 241.075904,255.252352 C241.032128,254.505088 240.955328,253.760128 240.849344,253.019008 C240.654272,249.067648 240.38624,245.231488 239.96,241.284736 L239.96,241.284736 Z" id="Fill-54"></path>
                <path d="M238.776512,225.610624 C238.086848,225.507712 237.396416,225.406336 236.705216,225.303424 C237.193664,228.366208 237.033152,231.49888 237.453248,234.583168 C237.804224,233.767552 238.156736,232.941184 239.012288,232.33216 C238.691264,230.083456 239.025344,227.855488 238.776512,225.610624" id="Fill-55"></path>
                <path d="M247.98176,240.61888 C247.12928,240.69568 246.273728,240.77248 245.421248,240.846976 C245.257664,245.297536 246.113216,249.859456 246.229952,254.320768 C247.372736,254.109568 248.516288,253.902976 249.67136,253.689472 C249.603008,253.201024 249.514688,252.717952 249.404864,252.236416 C248.987072,248.516224 247.940288,244.299136 247.98176,240.61888" id="Fill-56"></path>
                <path d="M245.339072,214.435323 C242.822336,214.38016 245.187776,231.531904 245.172416,232.910464 C245.609408,233.262208 246.041024,233.673088 246.46112,234.150016 C247.136192,234.919552 246.885824,235.427968 245.433536,235.548544 C245.726144,236.595328 245.675456,237.47008 245.664704,238.589824 C245.862848,238.701184 245.948864,238.890112 245.922752,239.152 C246.636224,239.180416 247.358144,239.189632 248.076224,239.211136 C248.076224,236.4256 247.155392,214.473088 245.339072,214.435323" id="Fill-57"></path>
                <path d="M256.035776,220.528 C253.9184,220.630912 255.791552,230.859136 256.031168,231.75616 C256.693184,231.516544 257.458112,231.584896 258.185408,231.8176 C257.93504,230.419072 258.680768,220.398208 256.035776,220.528" id="Fill-58"></path>
                <path d="M258.517952,234.435712 C257.868992,234.794368 257.231552,235.163776 256.561088,235.497856 C255.78464,240.84544 256.938944,246.840448 256.865216,252.268672 C257.911232,252.05824 258.964928,251.849344 260.019392,251.63584 C259.896512,249.663616 259.66304,247.706752 259.322816,245.761408 C258.816704,242.021248 258.992576,238.14976 258.517952,234.435712" id="Fill-59"></path>
                <path d="M267.184832,228.053574 C265.639616,228.075904 266.984384,247.317376 267.123392,250.217344 C268.005056,250.04224 268.893632,249.867904 269.78144,249.694336 C269.7392,249.410944 269.7008,249.126784 269.660096,248.841088 C269.216192,246.292864 269.763776,228.016 267.184832,228.053574" id="Fill-60"></path>
                <path d="M276.532928,230.70784 C273.4448,230.410624 276.495296,246.02944 275.873984,248.524672 C276.698048,248.371072 277.520576,248.215168 278.346944,248.063104 C278.305472,247.555456 278.264,247.049344 278.226368,246.544 C278.166464,244.499584 278.297024,230.879104 276.532928,230.70784" id="Fill-61"></path>
                <path d="M284.063168,247.014016 C284.716736,246.895744 285.369536,246.776704 286.02464,246.658432 C286.066112,246.42496 286.037696,246.196096 285.934784,245.97184 C283.303616,234.45184 285.37184,241.124224 284.063168,247.014016" id="Fill-62"></path>
                <path d="M232.03424,192.038272 C230.672576,194.107264 245.913536,203.838592 248.433344,205.161856 C249.593792,204.827776 250.236608,205.07584 250.35872,205.90528 C250.314176,205.986688 250.261952,206.054272 250.207424,206.12032 C254.232512,208.365184 279.852992,220.837504 279.687872,221.411968 C293.680832,228.310912 307.301312,235.970944 321.501632,242.489728 C322.983872,242.351488 324.46688,242.21248 325.953728,242.071936 C323.484608,240.759424 320.944832,239.598208 318.33824,238.589824 C307.753664,233.686144 232.521152,191.2864 232.03424,192.038272" id="Fill-63"></path>
                <path d="M249.0416,189.098368 C246.475712,193.522048 331.636928,235.412608 340.468928,240.427648 C341.991872,240.214144 343.518656,240.005248 345.043904,239.807872 C344.43488,239.51296 343.830464,239.2096 343.230656,238.899328 C333.417152,233.532544 249.520832,188.262784 249.0416,189.098368" id="Fill-64"></path>
                <path d="M284.0432,198.404992 C284.198336,198.493312 284.35424,198.579328 284.536256,198.68224 C284.788928,198.699136 284.950208,198.689152 285.036224,198.657664 C284.778176,198.527872 284.526272,198.400384 284.272832,198.272128 C284.1968,198.316672 284.121536,198.366592 284.0432,198.404992" id="Fill-65"></path>
                <path d="M339.540416,220.80064 C339.398336,220.918912 339.227072,221.022592 339.006656,221.094784 C339.227072,221.022592 339.398336,220.918912 339.540416,220.80064 C329.820608,217.495936 265.656512,184.71232 265.107392,185.688448 C265.612736,187.159168 266.552,188.335744 267.921344,189.215104 C269.57408,190.59904 275.796416,193.98976 284.272832,198.272128 C284.361152,198.220672 284.451008,198.177664 284.547776,198.169984 C285.051584,198.431872 285.209024,198.593152 285.036224,198.657664 C311.406272,211.935616 358.321856,233.294464 359.532224,230.874496 C360.330176,229.280896 340.822976,221.236096 339.540416,220.80064" id="Fill-66"></path>
                <path d="M318.423488,200.131456 C318.216128,201.006208 318.669248,201.808768 319.318208,202.748032 C319.518656,203.04064 319.573184,203.288704 319.52864,203.506048 C324.1904,205.414528 366.57248,224.984704 367.898048,221.780608 C368.149184,221.178496 324.414656,202.910848 318.423488,200.131456" id="Fill-67"></path>
                <path d="M289.883072,185.219968 C288.937664,184.736896 283.746752,181.526656 283.181504,182.443648 C283.50944,183.83296 284.276672,184.9696 285.487808,185.851264 C293.271488,193.190272 304.872896,197.578624 314.552,201.47008 C314.29856,200.51392 314.760128,199.658368 315.7232,198.895744 C308.552384,195.681664 299.78336,192.152704 293.367488,187.431808 C291.998144,188.562304 288.423872,186.959488 289.883072,185.219968" id="Fill-68"></path>
                <path d="M354.939584,203.21344 C354.885824,203.21344 354.827456,203.215744 354.770624,203.215744 L354.805952,203.238016 L354.770624,203.215744 C354.17312,202.835584 353.634752,202.639744 352.952,202.358656 C350.844608,202.3456 348.73568,202.332544 346.626752,202.316416 C347.185088,201.738112 348.526784,201.149056 346.556864,200.608384 C346.605248,200.34496 346.715072,200.12224 346.851776,199.915648 C342.104,198.189952 301.773248,179.185024 300.768704,181.047424 C300.910784,182.19328 301.604288,182.929792 302.846144,183.25696 C313.832384,189.629056 327.077312,192.091264 337.744832,198.880384 C339.305408,198.858112 340.73696,199.036288 341.170112,200.577664 C341.1632,200.599936 341.157056,200.623744 341.150144,200.645248 C342.825152,201.400192 344.562368,202.037632 346.233536,202.80256 C346.356416,202.639744 346.4816,202.481536 346.605248,202.31872 C346.4816,202.481536 346.356416,202.639744 346.233536,202.80256 C347.297984,203.2864 371.976128,215.446912 372.546752,214.285696 C374.399936,210.526336 356.766656,204.032128 354.939584,203.21344" id="Fill-69"></path>
                <path d="M314.723264,175.927168 C314.945216,177.109888 315.571904,178.066048 316.601024,178.800256 C321.334208,183.074944 380.94944,208.211584 381.918656,206.260864 C382.22432,205.650304 315.260096,174.827392 314.723264,175.927168" id="Fill-70"></path>
                <path d="M337.782464,179.372416 C337.274048,179.565952 337.059776,179.453824 337.140416,179.036032 C337.763264,178.892416 337.984448,179.016064 337.782464,179.372416 Z M357.411776,185.09248 C351.598016,182.933632 345.729728,181.04128 339.916736,178.761088 C337.963712,177.995392 324.419264,174.042496 330.113216,177.003904 C335.361728,179.820928 385.170368,199.31968 385.225664,199.199104 C387.512,194.096512 358.516928,185.504128 357.411776,185.09248 L357.411776,185.09248 Z" id="Fill-71"></path>
                <path d="M343.005632,169.131136 C342.981824,170.124928 343.339712,170.986624 344.080832,171.720832 C347.413952,175.656064 352.9328,177.142912 357.596096,178.763392 C359.82944,178.51456 361.97984,176.39488 363.230912,178.800256 C363.030464,179.291008 362.87072,179.810176 362.65952,180.320128 C365.941952,181.27168 392.264384,191.373952 393.14912,188.647552 C393.112256,188.766592 342.766016,169.581952 343.005632,169.131136" id="Fill-72"></path>
                <path d="M370.998464,169.036672 C372.095936,171.481216 366.300608,171.048064 369.171392,168.55744 C369.178304,168.466816 369.180608,168.37696 369.185216,168.2848 C367.458752,167.5744 356.94944,163.403392 360.876224,167.95456 C363.630272,171.096448 398.619584,180.972928 399.263936,179.264896 C399.822272,177.78496 373.449152,169.931392 370.998464,169.036672" id="Fill-73"></path>
                <path d="M403.845824,168.51136 C401.290688,166.507648 393.43328,166.382464 389.957312,165.386368 C388.365248,164.931712 374.358464,159.06112 376.97888,163.443328 C379.726784,167.963776 388.124096,167.431552 392.520128,168.383872 C394.516928,168.81472 408.516032,172.171648 403.845824,168.51136" id="Fill-74"></path>
                <path d="M395.746496,158.836864 C397.639616,162.607744 414.696128,161.92192 413.154752,160.242304 C411.138752,158.038912 394.1936,155.66656 395.746496,158.836864" id="Fill-75"></path>
                <path d="M135.824576,238.198144 C136.256192,238.343296 136.686272,238.488448 137.117888,238.632832 C137.528768,239.118976 137.937344,239.60512 138.346688,240.091264 C143.425472,235.405696 148.466624,230.821504 153.652928,226.290304 C153.492416,226.338688 153.321152,226.384768 153.185216,226.435456 C152.746688,225.780352 152.531648,225.468544 153.646784,225.410944 C153.774272,225.582208 153.99776,225.764992 154.07072,225.925504 C162.078656,218.933632 169.956032,211.810432 178.030784,204.843136 C176.996288,204.851584 175.973312,204.746368 174.96416,204.524416 C162.88736,216.598912 148.734656,227.049088 135.824576,238.198144" id="Fill-76"></path>
                <path d="M112.750016,257.99872 C113.932736,258.249088 115.122368,258.462592 116.31968,258.640768 C117.0992,258.108544 117.865664,257.556352 118.620608,256.989568 C123.16256,253.548928 127.199936,250.019968 131.502272,246.22912 C130.332608,245.769856 129.176,245.277568 128.030912,244.7584 C122.896832,249.126784 117.742784,253.487488 112.750016,257.99872" id="Fill-77"></path>
                <path d="M178.732736,201.25888 C179.39936,201.622144 180.211904,202.281088 180.773312,202.888576 C183.482048,201.162112 186.0848,199.18144 188.487872,197.051008 C188.439488,195.923584 189.20672,195.2416 190.794176,195.004288 C191.331008,194.52736 194.158016,192.124288 193.532096,191.215744 C192.536,189.767296 179.845568,200.496256 178.732736,201.25888" id="Fill-78"></path>
                <path d="M136.400576,241.869952 C136.778432,241.52896 137.154752,241.184128 137.528768,240.838528 C136.931264,241.058944 136.53728,241.392256 136.400576,241.869952" id="Fill-79"></path>
                <path d="M104.739008,253.60576 C107.150528,256.8928 124.478144,241.217152 126.116288,239.849344 C125.73536,239.295616 125.262272,238.758784 124.662464,238.250368 C126.029504,238.04608 127.397312,237.841792 128.76512,237.63904 C133.160384,233.815936 186.392768,189.015424 185.259968,187.447936 C185.346752,187.566208 103.575488,252.034432 104.739008,253.60576" id="Fill-80"></path>
                <path d="M157.239488,192.667264 C157.170368,192.807808 157.063616,192.913024 156.913856,192.962176 C155.824832,193.92448 154.776512,194.927488 153.769664,195.973504 C146.528192,202.393984 95.548352,242.25472 96.337856,243.332224 C99.604928,247.801216 172.70624,184.140928 171.725504,182.77312 C170.725568,181.377664 158.353856,191.744128 157.239488,192.667264" id="Fill-81"></path>
                <path d="M123.270848,204.58816 C122.604224,205.082752 87.075776,231.39136 87.939776,232.587136 C91.365056,237.33184 125.994176,205.250176 128.335808,202.659712 C127.05632,203.262592 125.7008,203.58976 124.284608,203.73952 C123.970496,204.049024 123.655616,204.31552 123.270848,204.58816" id="Fill-82"></path>
                <path d="M131.205824,198.09088 C131.909312,198.205312 132.6128,198.319744 133.316288,198.435712 C133.318592,198.629248 133.322432,198.822784 133.324736,199.01632 C134.661824,198.07552 155.209664,183.05728 153.992384,181.254016 C152.472512,178.993792 132.079808,197.5456 131.205824,198.09088" id="Fill-83"></path>
                <path d="M123.393728,192.563584 C118.464704,196.250752 79.54016,224.731264 80.046272,225.551488 C83.58368,231.294592 117.189824,199.729024 119.585984,197.807488 C119.585984,197.7568 119.585984,197.706112 119.585984,197.655424 L119.621312,197.677696 L119.588288,197.655424 C119.649728,197.655424 119.711168,197.65312 119.774912,197.65312 C122.089664,195.945088 145.67648,178.74112 144.054464,176.49856 C142.519232,174.370432 123.786944,192.27328 123.393728,192.563584" id="Fill-84"></path>
                <path d="M108.880832,187.159168 C105.180608,190.442368 72.181952,215.459968 73.433024,216.970624 C76.8368,221.097088 125.471168,175.425664 125.262272,175.124608 C123.758528,172.941184 109.248704,186.818944 108.880832,187.159168" id="Fill-85"></path>
                <path d="M65.47424,207.012736 C66.751424,208.602496 70.959296,205.511296 72.269504,204.988288 C75.694784,203.627392 111.270848,170.657152 110.668736,169.849984 C109.944512,168.878464 64.701632,206.05888 65.47424,207.012736" id="Fill-86"></path>
                <path d="M81.297344,177.841792 C82.275776,177.848704 83.251904,177.855616 84.228032,177.86176 C84.264896,177.884032 84.302528,177.90784 84.339392,177.931648 C85.742528,176.931712 99.923648,167.437696 98.472128,165.37408 C97.17344,163.517824 82.680512,176.458624 81.297344,177.841792" id="Fill-87"></path>
                <path d="M78.201536,180.647296 C77.972672,180.810112 57.501632,195.927424 58.413248,197.07328 C59.55296,198.504064 64.84064,195.8944 66.060224,194.863744 C70.1744,191.4976 73.692608,187.36576 77.709248,183.892096 C78.05024,183.037312 78.38816,182.180224 78.729152,181.322368 C78.606272,181.049728 78.4304,180.823168 78.201536,180.647296" id="Fill-88"></path>
                <path d="M52.627136,189.3472 C53.669312,190.657408 57.73664,189.023872 58.913216,188.22592 C61.287872,186.613888 85.125056,164.02624 84.256448,162.921856 C83.493824,161.958784 52.183232,188.791168 52.627136,189.3472" id="Fill-89"></path>
                <path d="M66.076352,163.447936 C63.409088,164.852608 44.892608,180.605824 44.8995181,180.614272 C47.170496,183.846016 52.07264,178.816384 53.614784,177.641344 C57.765824,173.996416 62.850752,170.250112 66.401216,166.079872 C69.481664,162.462592 72.532928,160.051072 66.076352,163.447936" id="Fill-90"></path>
                <path d="M50.005952,164.733568 C47.374784,166.78336 41.286848,170.1472 39.737024,173.01184 C36.672704,178.677376 42.824384,175.357312 45.662144,172.514944 C48.277952,169.977472 55.910336,164.414848 57.348032,161.497216 C60.898496,154.290304 51.297728,163.729024 50.005952,164.733568" id="Fill-91"></path>
                <path d="M36.375488,165.098368 C37.452224,165.384064 35.774912,167.00992 35.28032,165.989248 C31.287488,168.750976 32.123072,173.934976 35.718848,170.522752 C37.29632,169.113472 48.804032,157.58656 48.660416,156.001408 C48.339392,152.45248 38.230976,163.447936 36.375488,165.098368" id="Fill-92"></path>
                <path d="M29.807552,156.157312 C29.918144,156.519808 29.829824,156.803968 29.484224,156.985984 C26.578112,161.222272 27.791552,164.02624 31.183808,158.654848 C32.840384,154.628992 33.426368,151.865728 29.807552,156.157312" id="Fill-93"></path>
                <path d="M24.026048,147.8944 C24.078272,148.725376 24.491456,149.693056 23.11136,150.057856 C23.154368,150.275968 23.045312,150.418816 22.80032,150.477952 C16.884416,159.012736 24.993728,150.016384 26.085824,149.782912 C27.548096,149.239936 25.036736,146.107264 24.026048,147.8944" id="Fill-94"></path>
                <path d="M16.13024,146.942848 C16.110272,146.81536 16.062656,146.69632 15.985088,146.5888 C15.741632,146.190976 14.503616,144.643456 14.237888,145.049728 C13.96448,145.184128 14.153408,146.114176 14.16032,146.04352 C14.1296,146.076544 14.103488,146.102656 14.061248,146.12032 C14.178752,146.245504 14.358464,146.49664 14.136512,146.540416 C14.061248,146.905216 13.7648,145.8784 13.787072,146.729344 C13.74944,146.808448 13.694144,146.872192 13.623488,146.920576 C13.274048,146.93824 13.608128,147.13408 13.4192,147.248512 C12.645824,147.279232 15.330752,150.315136 15.91904,149.21152 C15.890624,148.640128 15.816128,148.355968 15.840704,148.087936 C16.290752,147.4528 14.985152,147.34528 16.13024,146.942848" id="Fill-95"></path>
                <path d="M232.171712,257.93728 C232.171712,257.93728 232.134848,257.945728 232.112576,257.950336 C233.110976,256.675456 233.644736,256.411264 235.285952,257.206912 C234.249152,257.451136 233.210048,257.693056 232.171712,257.93728 Z M210.95264,267.006592 C213.121472,265.082752 216.7664,264.460672 218.8592,267.220096 C216.181952,267.797632 213.549248,267.646336 210.95264,267.006592 Z M190.05536,269.859712 C189.90176,269.831296 189.745856,269.800576 189.591488,269.769856 C190.136768,269.451136 190.29344,269.481856 190.05536,269.859712 Z M189.033152,268.80064 C188.829632,268.980352 188.302784,269.01568 187.93184,269.117056 C186.928832,268.380544 186.951872,267.666304 187.994048,266.96896 C189.213632,266.909824 189.560768,267.521152 189.033152,268.80064 Z M184.805312,269.08864 L184.664,268.77376 L185.11328,268.859776 L184.805312,269.08864 Z M158.894528,269.187712 C163.7168,268.928128 168.561344,268.958848 173.385152,268.901248 C168.572864,269.079424 163.736,269.193856 158.894528,269.187712 Z M163.256768,272.25664 C163.243712,272.265088 162.981824,272.135296 162.832064,272.071552 C163.100864,271.550848 163.437248,271.449472 163.837376,271.765888 C163.650752,271.933312 163.470272,272.102272 163.256768,272.25664 Z M142.383296,269.01568 C142.106048,269.183104 141.868736,269.43808 141.543872,269.501824 C140.140736,269.765248 140.944832,267.958144 142.383296,269.013376 L142.383296,269.01568 Z M294.319808,246.150016 C293.994176,246.119296 293.970368,245.994112 294.247616,245.774464 C294.279872,245.782912 294.318272,245.792128 294.35744,245.800576 C294.375104,245.640064 294.348224,245.471104 294.329024,245.312896 C291.549632,245.693056 288.78176,246.141568 286.02464,246.658432 C285.745088,248.357248 286.662848,250.455424 287.050688,252.102016 C286.195904,252.231808 285.34112,252.356992 284.483264,252.491392 C284.397248,250.908544 283.688384,248.626048 284.063168,247.014016 C282.156992,247.352704 280.251584,247.700608 278.346944,248.063104 C278.496704,249.894016 278.698688,251.468416 279.048128,253.37536 C278.055104,253.542016 277.061312,253.71328 276.06752,253.887616 C275.937728,252.084352 275.436224,250.297216 275.873984,248.524672 C273.8288,248.911744 271.79744,249.298816 269.78144,249.694336 C270.008,251.449216 270.297536,253.1488 270.405824,254.912128 C269.339072,255.114112 268.273088,255.325312 267.207104,255.536512 C267.255488,253.750912 267.20864,252.001408 267.123392,250.217344 C264.733376,250.690432 262.365632,251.16352 260.019392,251.63584 C260.190656,253.36384 260.2928,255.221632 260.3312,256.956544 C259.157696,257.21152 257.9888,257.479552 256.818368,257.748352 C256.741568,255.908224 256.836032,254.107264 256.865216,252.268672 C254.474432,252.781696 252.0752,253.25632 249.67136,253.689472 C250.038464,255.914368 249.662144,257.402752 249.336512,259.559296 C248.318912,259.821184 247.302848,260.085376 246.289088,260.357248 C245.9888,258.403456 246.300608,256.314496 246.229952,254.320768 C244.497344,254.637184 242.780096,254.945152 241.075904,255.252352 C241.075904,257.765248 240.742592,259.616896 240.17888,262.068352 C239.940032,262.139008 239.700416,262.213504 239.4608,262.285696 C239.654336,262.430848 239.807936,262.609024 239.867072,262.857088 C239.205824,263.614336 238.433984,263.614336 237.553856,262.859392 C237.453248,262.890112 237.351872,262.920832 237.251264,262.95232 C237.055424,260.526976 237.609152,258.295168 237.56768,255.881344 C234.693824,256.391296 231.86912,256.870528 229.08512,257.325952 C229.15808,259.445632 228.557504,262.996096 227.557568,264.792448 C226.948544,264.840832 226.33952,264.889216 225.730496,264.939904 C225.315008,262.435456 225.41408,260.351104 225.510848,257.8912 C222.390464,258.374272 219.268544,258.849664 216.14432,259.302016 C215.621312,260.021632 214.103744,261.591424 214.07072,259.599232 C211.854272,259.917952 209.634752,260.192896 207.406784,260.427904 C207.217856,261.164416 206.14496,264.416896 204.997568,264.301696 C204.100544,264.214144 204.531392,261.298816 204.519872,260.751232 C202.117568,261.0016 199.712192,261.23968 197.306048,261.461632 C196.902848,261.929344 195.932096,262.822528 195.708608,261.597568 C193.617344,261.764992 191.526848,261.93856 189.437888,262.118272 C188.779712,263.16352 187.358144,264.370048 187.256768,262.314112 C184.422848,262.582912 181.788608,262.886272 179.354816,263.0752 C179.14208,263.9968 178.47776,265.972864 177.270464,266.00128 C176.424128,266.021248 176.439488,263.80096 176.37344,263.314816 C174.28064,263.48224 172.180928,263.526016 170.08352,263.576704 C169.166528,266.250112 167.247296,266.614912 166.983872,263.668864 C164.347328,263.717248 161.710784,263.767936 159.077312,263.822464 C158.862272,264.386176 156.339392,267.83296 155.89088,265.799296 C154.5392,266.232448 154.897856,266.171008 153.71744,265.777024 C153.140672,264.98368 155.550656,264.550528 155.770304,264.513664 C155.738048,264.282496 155.724224,264.04672 155.73344,263.811712 C154.129856,263.78944 152.51936,263.77024 150.918848,263.661952 C151.830464,268.349824 148.380608,267.138688 147.332288,263.312512 C144.737984,263.009152 142.175168,262.565248 139.602368,262.132096 C140.472512,264.256384 142.026176,266.707072 139.64384,268.340608 C138.909632,268.294528 138.179264,268.22464 137.4512,268.130176 C137.442752,266.221696 136.58336,263.653504 136.8368,261.66976 C130.026176,260.524672 123.144896,259.71136 116.31968,258.640768 C115.733696,259.040896 110.88224,262.285696 110.058944,261.27424 C110.495168,259.86112 111.392192,258.768256 112.750016,257.99872 C108.814784,257.209216 104.94944,256.118656 101.064128,255.121024 C103.058624,257.574016 105.171392,259.95328 107.096,262.460032 C100.11488,260.420992 99.845312,258.941824 95.816384,253.856896 C94.691264,253.929088 93.565376,254.00128 92.437184,254.07424 C90.289088,259.106944 118.3856,267.187072 121.15808,267.837568 C120.740288,267.127168 120.183488,266.448256 119.43008,265.810048 C120.814784,265.604224 122.20256,265.396864 123.587264,265.192576 C124.605632,265.737856 125.625536,266.278528 126.64544,266.819968 C127.043264,266.762368 127.434176,266.694016 127.82432,266.612608 C127.844288,266.593408 127.863488,266.57344 127.881152,266.553472 C127.676864,266.514304 127.470272,266.474368 127.26368,266.4352 C126.805952,265.465216 127.542464,266.19328 127.434176,265.614976 C127.547072,265.346944 127.41728,265.16416 127.16,265.032064 C126.183872,261.303424 129.636032,263.492992 129.582272,263.807872 C129.176,264.293248 129.09536,264.686464 129.140672,265.276288 L129.140672,265.27168 L129.142976,265.269376 C130.056128,265.579648 130.970048,265.887616 131.884736,266.194816 C132.427712,266.836864 132.970688,267.478912 133.512128,268.123264 C131.999168,268.306048 131.08832,268.822144 131.109056,269.858176 C131.121344,269.868928 131.125952,269.877376 131.13824,269.888896 C168.742592,276.893824 207.316928,270.352768 244.488128,262.751872 C243.217856,263.805568 249.683648,259.811968 251.072192,261.39328 C265.287872,258.435712 279.396032,254.65024 293.733056,252.295552 C293.396672,251.638144 293.820608,251.161216 295.008704,250.866304 C294.289088,249.281152 294.182336,247.80352 294.319808,246.150016 L294.319808,246.150016 Z" id="Fill-96"></path>
                <path d="M515.35712,269.627008 C515.333312,269.62624 515.308736,269.625472 515.284928,269.624704 C515.317184,269.639296 515.34944,269.653888 515.382464,269.667712 C515.374784,269.653888 515.363264,269.6416 515.35712,269.627008" id="Fill-97"></path>
                <path d="M424.336832,246.530944 L424.409792,246.638464 C426.194624,242.324608 425.229248,251.130496 424.336832,246.530944 Z M306.141632,245.780608 C305.957312,245.954944 304.550336,245.723776 306.669248,245.055616 L306.726848,245.09248 C306.535616,245.323648 306.3728,245.567872 306.141632,245.780608 Z M303.376064,249.668224 C302.575808,249.912448 301.762496,250.0768 300.933824,250.16512 C300.73568,249.824128 300.896192,247.36192 301.214912,247.02784 C301.212608,246.967936 301.210304,246.9088 301.208,246.849664 C301.28096,246.860416 301.335488,246.87808 301.401536,246.891136 C302.518976,246.355072 303.793856,247.403392 303.704,248.553088 C303.637952,249.0016 303.595712,249.278848 303.376064,249.668224 Z M515.382464,269.667712 C515.473856,269.858176 515.613632,270.032512 515.816384,270.185344 C510.037952,277.86304 509.145536,270.644608 509.91968,270.262144 C510.448832,270.001024 511.01024,269.767552 511.557824,269.521792 C512.79968,269.556352 514.043072,269.590144 515.284928,269.624704 C497.985728,261.949312 470.059712,252.863872 466.701248,251.777152 C466.380224,253.230208 465.38336,253.643392 463.70912,253.016704 C461.121728,252.539776 460.791488,251.24032 460.988096,249.898624 C431.61824,240.429952 395.528384,239.385472 364.640192,239.138944 C364.044224,240.029824 363.488192,240.931456 362.931392,241.845376 C361.737152,241.852288 360.544448,241.867648 359.347904,241.900672 C360.009152,240.990592 360.641216,240.060544 361.241024,239.108224 C355.854272,239.1328 350.399936,239.114368 345.043904,239.807872 C346.644416,240.58816 348.181184,241.45216 349.698752,242.379904 C348.172736,242.489728 346.651328,242.614912 345.132224,242.75392 C343.54016,242.02816 341.990336,241.291648 340.468928,240.427648 C335.647424,241.13344 330.803648,241.616512 325.953728,242.071936 C327.4352,242.932096 328.928192,243.738496 330.454208,244.514944 C329.04032,244.721536 327.633344,244.934272 326.232512,245.158528 C324.70496,244.22464 323.125952,243.2416 321.501632,242.489728 C313.272512,243.263872 305.075648,244.296832 296.841152,245.035648 C297.303488,246.832 296.62688,248.733568 296.938688,250.690432 C296.76512,250.715008 296.590784,250.736512 296.417216,250.76032 C296.94944,250.974592 297.261248,251.307904 297.351872,251.767936 C337.214912,246.54784 373.4192,243.34528 413.465024,247.871872 C435.26624,250.338688 455.81024,255.01504 476.549312,262.2112 C482.157248,264.159616 526.490816,282.913408 528.844736,278.940544 C530.001344,276.99904 524.033216,273.51232 515.382464,269.667712 L515.382464,269.667712 Z" id="Fill-98"></path>
                <path d="M359.347904,241.900672 C360.544448,241.867648 361.737152,241.852288 362.931392,241.845376 C363.488192,240.931456 364.044224,240.029824 364.640192,239.138944 C363.50816,239.1328 362.376128,239.123584 361.241024,239.108224 C360.641216,240.060544 360.009152,240.990592 359.347904,241.900672" id="Fill-99"></path>
                <path d="M97.52288,254.199424 C96.896192,254.054272 96.335552,253.944448 95.816384,253.856896 C99.845312,258.941824 100.11488,260.420992 107.096,262.460032 C105.173696,259.955584 103.058624,257.571712 101.064128,255.121024 C99.883712,254.817664 98.703296,254.512 97.52288,254.199424" id="Fill-100"></path>
                <path d="M158.894528,269.187712 C163.736,269.193856 168.572864,269.079424 173.385152,268.901248 C169.466048,268.93888 165.545408,268.991872 161.62784,269.064064 C160.673216,269.097088 159.76544,269.140864 158.894528,269.187712" id="Fill-101"></path>
                <path d="M296.841152,245.035648 C296.001728,245.106304 295.164608,245.198464 294.329024,245.312896 C294.348224,245.471104 294.375104,245.640064 294.35744,245.800576 C294.726848,245.822848 294.76832,245.95264 294.482624,246.189952 C294.43424,246.174592 294.37664,246.16384 294.319808,246.150016 C294.182336,247.785856 294.344384,249.296512 295.008704,250.864 C295.656128,250.751872 296.288192,250.778752 296.938688,250.690432 C296.62688,248.733568 297.305792,246.840448 296.841152,245.035648" id="Fill-102"></path>
                <path d="M204.997568,264.301696 C206.14496,264.416896 207.217856,261.164416 207.406784,260.427904 C206.446016,260.550784 205.482944,260.659072 204.519872,260.751232 C204.531392,261.298816 204.100544,264.214144 204.997568,264.301696" id="Fill-103"></path>
                <path d="M196.174016,262.261888 C196.643264,262.105984 197.018048,261.839488 197.306048,261.461632 C196.76768,261.507712 196.235456,261.556096 195.708608,261.597568 C195.7808,261.993088 195.947456,262.231168 196.174016,262.261888" id="Fill-104"></path>
                <path d="M189.437888,262.118272 C188.709824,262.175872 187.98176,262.24192 187.256768,262.314112 C187.358144,264.370048 188.779712,263.16352 189.437888,262.118272" id="Fill-105"></path>
                <path d="M177.270464,266.00128 C178.47776,265.972864 179.14208,263.9968 179.354816,263.0752 C178.361024,263.161216 177.367232,263.24032 176.37344,263.314816 C176.439488,263.80096 176.424128,266.021248 177.270464,266.00128" id="Fill-106"></path>
                <path d="M170.08352,263.576704 C169.05056,263.618176 168.016832,263.648896 166.983872,263.668864 C167.247296,266.614912 169.166528,266.250112 170.08352,263.576704" id="Fill-107"></path>
                <path d="M155.73344,263.811712 C155.724224,264.04672 155.738048,264.282496 155.770304,264.513664 C157.639616,264.207232 157.716416,265.214848 155.89088,265.799296 C156.339392,267.83296 158.862272,264.386176 159.077312,263.822464 C157.806272,263.83168 156.69344,263.822464 155.73344,263.811712" id="Fill-108"></path>
                <path d="M147.332288,263.312512 C148.379072,267.129472 151.832768,268.36288 150.918848,263.661952 C149.72,263.583616 148.523456,263.466112 147.332288,263.312512" id="Fill-109"></path>
                <path d="M136.8368,261.66976 C136.584896,263.648896 137.445824,266.22784 137.4512,268.130176 C138.179264,268.22464 138.909632,268.294528 139.64384,268.340608 C142.011584,266.716288 140.467904,264.244864 139.602368,262.132096 C138.680768,261.976192 137.759168,261.821824 136.8368,261.66976" id="Fill-110"></path>
                <path d="M127.16,265.032064 C127.43264,265.159552 127.561664,265.34464 127.434176,265.614976 C127.542464,266.19328 126.805952,265.465216 127.26368,266.4352 C127.470272,266.474368 127.676864,266.514304 127.881152,266.553472 C128.301248,266.127232 128.721344,265.700224 129.140672,265.276288 L129.12608,265.201024 C129.070784,264.658048 129.154496,264.268672 129.582272,263.807872 C129.639872,263.466112 126.194624,261.33184 127.16,265.032064" id="Fill-111"></path>
                <path d="M214.086848,259.887232 C214.290368,261.632896 215.843264,259.715968 216.14432,259.302016 C215.451584,259.403392 214.757312,259.502464 214.07072,259.599232 C214.07072,259.700608 214.073024,259.798912 214.086848,259.887232" id="Fill-112"></path>
                <path d="M225.490112,258.203008 C225.21824,260.520064 225.343424,262.611328 225.730496,264.939904 C226.33952,264.889216 226.948544,264.840832 227.557568,264.792448 C228.557504,262.996096 229.15808,259.445632 229.08512,257.325952 C227.881664,257.521792 226.693568,257.708416 225.510848,257.8912 C225.50624,257.994112 225.501632,258.097792 225.490112,258.203008" id="Fill-113"></path>
                <path d="M237.569984,256.253056 C237.6752,258.546304 237.063872,260.626048 237.251264,262.95232 C237.351872,262.920832 237.453248,262.890112 237.553856,262.859392 C236.66144,261.795712 239.21888,262.105984 239.4608,262.285696 C239.700416,262.213504 239.940032,262.139008 240.17888,262.068352 C240.738752,259.627648 241.075904,257.743744 241.075904,255.252352 C239.904704,255.463552 238.726592,255.677056 237.56768,255.881344 C237.569984,256.002688 237.565376,256.143232 237.569984,256.253056" id="Fill-114"></path>
                <path d="M246.229952,254.320768 C246.229952,254.34688 246.239168,254.382208 246.239168,254.410624 C246.25376,256.349824 245.99648,258.45184 246.289088,260.357248 C247.302848,260.085376 248.318912,259.821184 249.336512,259.559296 C249.664448,257.385088 250.038464,255.92128 249.67136,253.689472 C248.516288,253.902976 247.372736,254.109568 246.229952,254.320768" id="Fill-115"></path>
                <path d="M256.865216,252.268672 C256.860608,252.502144 256.857536,252.74176 256.853696,252.966016 C256.75232,254.568832 256.75232,256.145536 256.818368,257.748352 C257.9888,257.479552 259.157696,257.21152 260.3312,256.956544 C260.289728,255.215488 260.190656,253.370752 260.019392,251.63584 C258.964928,251.849344 257.911232,252.05824 256.865216,252.268672" id="Fill-116"></path>
                <path d="M267.123392,250.217344 C267.153344,250.877824 267.202496,251.52832 267.241664,252.155008 C267.255488,253.2832 267.243968,254.40832 267.207104,255.536512 C268.273088,255.325312 269.339072,255.114112 270.405824,254.912128 C270.297536,253.1488 270.008,251.449216 269.78144,249.694336 C268.893632,249.867904 268.005056,250.04224 267.123392,250.217344" id="Fill-117"></path>
                <path d="M275.873984,248.524672 C275.823296,248.731264 275.754176,248.94016 275.704256,249.159808 C275.334848,250.631296 275.96,252.398464 276.06752,253.887616 C277.061312,253.71328 278.055104,253.542016 279.048128,253.37536 C278.707904,251.523712 278.4944,249.874816 278.346944,248.063104 C277.520576,248.215168 276.698048,248.371072 275.873984,248.524672" id="Fill-118"></path>
                <path d="M286.02464,246.658432 C285.369536,246.776704 284.716736,246.895744 284.063168,247.014016 C284.05088,247.069312 284.03936,247.126144 284.026304,247.183744 C283.66304,248.715904 284.448704,250.958464 284.483264,252.491392 C285.34112,252.356992 286.195904,252.231808 287.050688,252.102016 C286.6352,250.494592 285.745088,248.355712 286.02464,246.658432" id="Fill-119"></path>
                <path d="M301.401536,246.891136 C302.723264,247.15072 302.762432,247.838848 302.638784,248.579968 C301.335488,248.338048 301.244096,247.693696 301.214912,247.02784 C300.88544,247.372672 300.73568,249.824128 300.933824,250.16512 C301.762496,250.0768 302.575808,249.912448 303.376064,249.668224 C303.8384,248.850304 303.725504,248.248192 303.37376,247.410304 C303.006656,246.838144 302.009024,246.598528 301.401536,246.891136" id="Fill-120"></path>
                <path d="M321.501632,242.489728 C321.5408,242.509696 321.584576,242.52736 321.624512,242.545024 C323.201216,243.347584 324.737984,244.217728 326.232512,245.158528 C327.633344,244.934272 329.04032,244.721536 330.454208,244.514944 C328.928192,243.738496 327.4352,242.932096 325.953728,242.071936 C324.46688,242.21248 322.983872,242.351488 321.501632,242.489728" id="Fill-121"></path>
                <path d="M340.468928,240.427648 C341.990336,241.291648 343.54016,242.02816 345.132224,242.75392 C346.651328,242.614912 348.172736,242.489728 349.698752,242.379904 C348.181184,241.45216 346.644416,240.58816 345.043904,239.807872 C343.518656,240.005248 341.991872,240.214144 340.468928,240.427648" id="Fill-122"></path>
                <path d="M110.058944,261.27424 C110.88224,262.285696 115.733696,259.040896 116.31968,258.640768 C115.122368,258.462592 113.932736,258.249088 112.750016,257.99872 C111.392192,258.768256 110.495168,259.86112 110.058944,261.27424" id="Fill-123"></path>
                <path d="M381.745088,216.713344 C381.565376,215.961472 462.113216,215.1328 464.590784,215.343232 C465.285824,214.01152 465.900992,212.616832 467.371712,211.715968 C459.525824,210.895744 451.667648,210.031744 443.78336,209.644672 C440.973248,209.481856 380.123072,210.07552 381.745088,216.713344" id="Fill-124"></path>
                <path d="M472.508096,212.282752 C472.851392,213.195136 472.838336,214.14976 472.819904,215.108224 C472.453568,215.383168 472.097216,215.668864 471.743168,215.95456 C472.756928,216.040576 473.76608,216.145792 474.774464,216.267136 C474.605504,215.98528 474.444992,215.609728 474.22688,215.110528 C475.990976,215.180416 477.38336,215.60512 478.149824,216.62272 C490.3472,217.955968 608.904896,235.882624 608.337344,225.14752 C608.639168,230.96896 485.787584,213.832576 472.508096,212.282752" id="Fill-125"></path>
                <path d="M169.252544,288.183424 C168.890048,287.936896 168.929216,287.747968 169.371584,287.62048 C169.459136,287.723392 169.546688,287.827072 169.65728,287.949952 C169.527488,288.025216 169.38848,288.10432 169.252544,288.183424 Z M212.53856,288.339328 C212.864192,287.910784 213.239744,287.536768 213.636032,287.191936 C205.873856,285.251968 196.284608,286.285696 188.329664,285.980032 C188.257472,287.576704 187.457216,288.295552 185.92736,288.13888 C184.339136,287.294848 186.166208,286.085248 186.8912,285.956224 C180.896192,286.002304 174.911936,286.446208 168.909248,286.46848 C171.079616,289.27168 161.852096,286.89472 161.894336,286.939264 L161.895872,286.936192 C161.11328,286.048384 162.078656,286.463872 162.41888,286.611328 C163.408064,286.542976 164.401856,286.486144 165.388736,286.406272 C145.694144,284.904832 81.081536,287.963776 79.235264,261.157504 C78.137792,261.388672 77.07104,261.122944 76.031168,260.357248 C68.61536,292.257664 158.336192,289.366144 176.156096,289.205632 C177.42176,287.947648 179.190464,287.04448 179.827904,289.217152 C182.692544,289.28704 215.626688,291.597952 215.144384,287.999104 L215.14208,287.987584 C214.26656,288.04288 213.400256,288.161152 212.53856,288.339328 L212.53856,288.339328 Z" id="Fill-126"></path>
                <path d="M161.899712,286.932352 L161.895872,286.936192 C161.895872,286.93696 161.895872,286.93696 161.895872,286.93696 L161.899712,286.932352" id="Fill-127"></path>
                <path d="M62.32544,250.881664 C65.715392,253.093504 76.997312,231.960448 77.475776,232.490368 C77.302208,232.422016 77.115584,232.395904 76.899776,232.418176 C72.79712,232.630912 58.37024,248.30272 62.32544,250.881664" id="Fill-128"></path>
                <path d="M77.475776,232.490368 C77.672384,232.707712 77.862848,232.918912 78.056384,233.13472 C77.968064,232.796032 77.774528,232.580224 77.475776,232.490368" id="Fill-129"></path>
                <path d="M352.144832,273.244288 C354.010304,273.254272 355.163072,273.273472 355.38656,273.291904 C354.225344,273.030784 353.144768,273.015424 352.144832,273.244288" id="Fill-130"></path>
                <path d="M417.758144,282.200704 C417.758144,282.92416 417.758144,283.647616 417.758144,284.371072 C415.784384,283.348096 415.681472,283.05856 417.396416,282.130816 C402.095552,279.147136 386.289344,276.359296 370.81184,274.66816 C371.090624,275.046784 371.244224,275.477632 371.275712,275.956864 C370.361024,275.85088 369.446336,275.747968 368.531648,275.642752 C368.455616,275.233408 368.16224,274.745728 368.536256,274.433152 C364.720832,274.043776 360.90464,273.75808 357.08384,273.433216 C356.276672,274.340992 348.717248,278.406016 349.395392,274.659712 C350.231744,273.943936 351.148736,273.472384 352.144832,273.244288 C335.91776,273.154432 264.89312,273.759616 266.975936,281.897344 C266.846144,281.38048 346.701248,276.838528 350.572736,277.012096 C381.017792,278.379904 410.534336,284.420992 440.456384,289.505152 C440.889536,288.267136 449.290688,289.128832 444.88928,290.267776 C450.344384,291.21088 516.603584,304.220032 517.43456,298.404736 C517.37312,298.826368 425.279936,283.671424 417.758144,282.200704" id="Fill-131"></path>
                <path d="M334.572224,258.65152 C334.5968,258.719872 334.622912,258.78592 334.639808,258.855808 C336.210368,259.620736 336.79712,259.970944 336.516032,260.33344 C347.791808,259.946368 453.619904,270.97024 453.885632,270.086272 C454.453184,268.233088 348.564416,258.370432 334.572224,258.65152" id="Fill-132"></path>
                <path d="M241.012928,276.779392 C241.056704,276.935296 277.938368,267.54496 282.22304,266.612608 C282.045632,266.463616 281.93504,266.237056 281.776832,266.065024 C281.898176,265.622656 282.080192,265.288576 282.296,265.025152 C261.088448,268.56256 239.931584,273.073792 241.012928,276.779392" id="Fill-133"></path>
                <path d="M282.296,265.025152 C283.842752,264.767104 285.3872,264.5152 286.924736,264.267904 C286.962368,264.239488 286.998464,264.21184 287.036096,264.183424 C286.378688,264.721024 283.611584,263.423872 282.296,265.025152" id="Fill-134"></path>
                <path d="M286.924736,264.267904 C286.122176,264.881536 285.321152,265.493632 284.51936,266.10496 C297.62912,263.13664 311.41856,261.859456 324.794816,260.9248 C324.480704,260.320384 324.166592,259.715968 323.853248,259.110784 C322.724288,259.179136 305.425856,261.299584 286.924736,264.267904" id="Fill-135"></path>
                <path d="M399.786944,224.212864 C399.98816,224.201344 400.184,224.199808 400.375232,224.208256 C400.184,224.199808 399.98816,224.201344 399.786944,224.212864" id="Fill-136"></path>
                <path d="M376.275392,225.806464 C376.290752,226.035328 401.24768,225.40864 403.79744,225.520768 C402.809024,224.785792 401.71232,224.265088 400.375232,224.208256 C400.184,224.199808 399.98816,224.201344 399.786944,224.212864 C399.98816,224.201344 400.184,224.199808 400.375232,224.208256 C401.71232,224.265088 402.81056,224.785792 403.79744,225.520768 C431.91776,226.754176 459.115712,232.437376 486.72224,237.579904 C499.614656,239.982976 512.679104,241.546624 525.707456,243.044224 C531.873728,243.75232 539.685824,243.3376 547.458752,243.213952 C522.28832,240.916096 496.902848,237.905536 490.602176,236.696704 C487.361984,236.07616 375.45056,215.523712 376.275392,225.806464" id="Fill-137"></path>
                <path d="M564.638912,244.793728 C565.052096,245.427328 565.93376,245.59168 566.876864,245.69536 C566.79776,245.28832 566.651072,244.993408 566.442176,244.798336 C565.940672,244.761472 565.436096,244.723072 564.930752,244.684672 C564.834752,244.718464 564.741824,244.748416 564.638912,244.793728" id="Fill-138"></path>
                <path d="M599.519168,245.971072 C602.373056,245.765248 604.025792,245.354368 604.09952,244.688512 C604.03424,245.313664 602.235584,245.717632 599.519168,245.971072" id="Fill-139"></path>
                <path d="M564.930752,244.684672 C565.436096,244.723072 565.940672,244.761472 566.442176,244.798336 C566.10656,244.484224 565.601216,244.448128 564.930752,244.684672" id="Fill-140"></path>
                <path d="M568.290752,244.933504 C569.36672,245.239936 570.396608,245.59168 571.361984,246.007168 C573.645248,246.082432 591.063488,246.760576 599.519168,245.971072 C593.411264,246.411136 581.784512,245.90656 568.290752,244.933504" id="Fill-141"></path>
                <path d="M547.458752,243.213952 C553.379264,243.754624 559.285184,244.256128 564.930752,244.684672 C565.601216,244.448128 566.10656,244.484224 566.442176,244.798336 C567.06272,244.844416 567.67712,244.88896 568.290752,244.933504 C562.382528,243.251584 554.941376,243.09568 547.458752,243.213952" id="Fill-142"></path>
                <path d="M408.572864,237.388672 C408.648128,237.344896 408.723392,237.301888 408.798656,237.25888 C408.653504,237.231232 408.50912,237.202816 408.364736,237.175168 C408.399296,237.241216 408.4592,237.311872 408.572864,237.388672" id="Fill-143"></path>
                <path d="M393.808832,235.429504 C393.934784,234.699904 399.389888,235.455616 408.364736,237.175168 C408.291776,237.031552 408.390848,236.91328 408.691136,236.826496 C408.778688,236.929408 408.87008,237.03232 408.976832,237.155968 C408.92,237.188992 408.85856,237.22432 408.798656,237.25888 C450.44576,245.281408 565.492928,273.394816 580.515008,271.556992 C580.66016,271.527808 581.103296,271.45024 581.669312,271.341952 C565.784,271.440256 508.515776,257.34976 504.675776,256.19776 C499.05632,254.507392 394.963136,228.443008 393.808832,235.429504" id="Fill-144"></path>
                <path d="M581.669312,271.341952 C584.27744,271.325824 585.7712,270.927232 585.728192,270.024832 C585.752,270.500992 583.230656,271.042432 581.669312,271.341952" id="Fill-145"></path>
                <path d="M605.484224,236.988544 C596.699072,237.360256 587.86016,237.599872 579.0704,237.734272 C579.399872,237.986944 579.094208,238.250368 578.834624,238.493056 C581.402816,241.707136 599.75264,238.934656 604.785344,238.781056 C604.777664,238.651264 604.793792,238.519168 604.7984,238.389376 C604.564928,238.215808 604.329152,238.04224 604.092608,237.867904 C604.328384,237.417088 604.818368,237.142912 605.484224,236.988544" id="Fill-146"></path>
                <path d="M577.170368,237.762688 C576.579776,237.771136 575.98304,237.771136 575.39936,237.764992 C575.052992,237.9232 574.725824,237.917056 574.417856,237.74272 C565.31168,237.35104 477.125312,226.993792 477.39104,226.101376 C476.193728,230.050432 528.530624,236.439424 530.305472,236.586112 C530.366912,236.265088 530.4944,235.955584 530.92064,235.702912 C530.958272,235.706752 530.995904,235.71136 531.030464,235.713664 L530.99744,235.652224 L531.004352,235.65376 C532.061888,235.65376 533.110976,235.790464 534.148544,236.0608 C534.140096,236.043136 534.123968,236.034688 534.11552,236.019328 C534.76832,236.019328 535.42112,236.021632 536.07392,236.025472 C535.992512,236.285056 535.911872,236.546944 535.830464,236.808064 C535.85888,236.89024 535.856576,236.947072 535.87424,237.019264 C549.714368,238.03072 563.64512,239.152 577.531328,239.0752 C577.496,238.903936 577.473728,238.728064 577.427648,238.5568 C577.155776,238.285696 576.948416,238.006912 577.170368,237.762688" id="Fill-147"></path>
                <path d="M617.157056,236.430208 C616.923584,236.62144 616.260032,236.707456 616.008128,236.470144 C614.716352,236.516224 613.423808,236.577664 612.131264,236.659072 C612.02912,236.898688 611.796416,237.116032 611.490752,237.30112 C610.625216,237.828736 609.683648,237.870208 608.685248,237.452416 C607.590848,237.77344 606.49568,238.09216 605.400512,238.41088 C605.395904,238.527616 605.391296,238.644352 605.381312,238.761088 C607.861184,238.684288 621.417152,238.493056 621.454784,236.858752 C620.086976,236.291968 618.653888,236.14912 617.157056,236.430208" id="Fill-148"></path>
                <path d="M592.818368,254.964352 C585.107648,254.78848 514.299584,252.522112 514.721216,250.462336 C513.692096,255.534208 586.321088,257.642368 594.104,256.452736 C593.448896,256.046464 593.029568,255.542656 592.818368,254.964352" id="Fill-149"></path>
                <path d="M499.588544,287.741824 C499.676096,288.082048 499.553216,288.504448 499.26368,289.05664 C514.073024,290.084992 528.92,290.690176 543.76544,290.819968 C544.6832,290.237056 545.567936,290.232448 546.420416,290.808448 C549.819584,290.756224 553.377728,290.713984 556.73696,290.155648 C556.964288,290.115712 541.564352,288.992896 536.856512,288.959872 C524.387264,288.877696 512.020928,288.717184 499.588544,287.741824" id="Fill-150"></path>
                <path d="M493.674176,287.499136 C489.116096,287.35936 413.106368,275.556736 413.073344,275.66656 C411.752384,280.1056 489.536192,288.955264 494.846144,288.950658 C494.303168,288.631936 493.913792,288.148096 493.674176,287.499136" id="Fill-151"></path>
                <path d="M129.246656,274.285696 C128.39264,274.80256 127.503296,274.69504 126.577088,273.960064 C110.512064,271.770496 74.982848,265.289344 86.293952,242.226304 C86.127296,242.04352 85.96448,241.852288 85.800128,241.665664 C82.044608,243.885952 81.090752,250.224256 82.238144,254.12032 C83.400896,254.808448 83.685056,255.593344 83.08832,256.472704 C88.761536,270.365824 106.757312,271.80352 119.588288,273.916288 C122.277824,274.358656 155.410112,280.536448 155.814848,277.826176 C155.981504,276.71104 129.605312,274.325632 129.246656,274.285696" id="Fill-152"></path>
                <path d="M85.800128,241.665664 C85.96448,241.852288 86.127296,242.04352 86.293952,242.226304 C86.481344,241.84768 86.534336,241.584256 86.437568,241.491328 C86.34464,241.40608 86.13344,241.46752 85.800128,241.665664" id="Fill-153"></path>
                <path d="M140.973248,294.75904 C140.788928,294.765952 140.603072,294.765184 140.417216,294.765952 C140.6192,294.768256 140.808128,294.76672 140.973248,294.75904" id="Fill-154"></path>
                <path d="M133.953728,294.216064 C136.078784,294.4288 138.268352,294.775936 140.417216,294.765952 C138.990272,294.749824 136.692416,294.500224 133.926848,294.120064 C133.934528,294.153088 133.946048,294.180736 133.953728,294.216064" id="Fill-155"></path>
                <path d="M130.478528,293.617792 C131.68352,293.800576 132.840128,293.971072 133.926848,294.120064 C133.521344,292.48576 131.801024,293.114752 130.478528,293.617792" id="Fill-156"></path>
                <path d="M71.6912,273.149056 C70.387904,272.996992 69.297344,272.119936 68.010176,272.032384 C81.796544,291.797632 108.944576,290.925184 130.16288,293.736832 C130.265024,293.6992 130.371776,293.658496 130.478528,293.617792 C122.866112,292.458112 113.383616,290.74624 108.28256,290.063488 C95.14976,288.299392 80.120768,283.974784 71.6912,273.149056" id="Fill-157"></path>
                <path d="M67.14464,270.633856 C67.569344,270.51328 68.14688,270.534784 68.663744,270.54784 C68.921024,270.34816 69.178304,270.150016 69.43328,269.950336 C67.256768,266.168704 70.902464,252.942208 71.302592,253.403776 C68.486336,250.10368 65.088704,266.90752 67.14464,270.633856" id="Fill-158"></path>
                <path d="M238.0208,298.688128 C237.94784,299.215744 237.861824,299.741824 237.704384,300.24256 C245.181632,300.445312 313.186496,307.678336 313.198784,307.640704 C314.062784,305.244544 247.481024,299.10592 238.0208,298.688128" id="Fill-159"></path>
                <path d="M185.075648,297.437056 C180.192704,297.355648 175.322816,296.942464 170.446016,296.914048 C170.485952,296.920192 170.528192,296.927104 170.56736,296.933248 L170.558912,296.944768 C169.396928,296.733568 158.384576,296.623744 158.32544,297.250432 C158.042048,300.137344 231.998144,300.0736 234.832064,300.168064 C235.060928,299.380864 235.692224,298.868608 236.718272,298.630528 C219.93056,297.883264 203.106752,297.709696 186.298304,297.459328 C186.08864,297.890176 185.680064,297.883264 185.075648,297.437056" id="Fill-160"></path>
                <path d="M295.57088,292.578688 C295.98176,292.989568 296.1776,293.460352 296.156096,293.991808 C299.043008,294.352768 339.783104,302.55808 340.21856,301.17952 C340.763072,299.468416 298.613696,292.998016 295.57088,292.578688" id="Fill-161"></path>
                <path d="M227.860825,288.871552 C227.770304,290.797696 287.601344,293.378944 289.485248,293.539456 C289.443776,293.066368 289.513664,292.479616 289.82624,292.103296 C288.896192,292.011136 227.983808,285.962368 227.860825,288.871552" id="Fill-162"></path>
                <path d="M42.55328,250.004608 C43.753664,250.52608 45.541568,247.302016 46.290368,246.552448 C46.018496,246.732928 45.743552,246.913408 45.481664,247.117696 C45.253568,245.252992 46.510784,244.250752 48.17504,243.485824 C53.161664,233.61856 61.546688,229.049728 70.926272,224.626048 C70.543808,224.142208 70.148288,223.673728 69.73664,223.216768 C65.849792,224.795008 37.287872,247.739776 42.55328,250.004608" id="Fill-163"></path>
                <path d="M72.287168,222.477952 C72.561344,222.80512 72.837056,223.130752 73.098176,223.460224 C73.105088,223.45408 73.118144,223.447168 73.125056,223.43872 C73.896128,222.684544 72.800192,222.407296 72.287168,222.477952" id="Fill-164"></path>
                <path d="M69.73664,223.216768 C70.148288,223.673728 70.543808,224.142208 70.926272,224.626048 C71.71808,224.361856 72.441536,223.974784 73.098176,223.460224 C72.837056,223.130752 72.561344,222.80512 72.287168,222.477952 C71.384,222.598528 70.578368,222.875776 69.73664,223.216768" id="Fill-165"></path>
                <path d="M56.063936,245.152384 C55.93184,244.928128 55.852736,244.688512 55.753664,244.452736 C55.6592,244.446592 55.557824,244.441984 55.430336,244.457344 C40.046528,246.9088 57.921728,277.507456 59.466944,276.431488 C60.188864,275.933056 53.144,264.719488 52.688576,262.947712 C50.784704,255.534208 53.175488,251.279488 56.063936,245.152384" id="Fill-166"></path>
                <path d="M25.628096,250.95232 C26.69024,251.112832 28.468928,246.374272 29.058752,245.405056 C28.9328,245.29984 28.805312,245.19616 28.682432,245.08864 C28.912832,244.842112 29.108672,244.824448 29.269184,245.035648 C33.121472,237.52768 37.26944,231.476608 43.941056,226.145152 C45.265856,225.175936 61.102784,217.166464 60.532928,215.888512 C57.020096,207.960448 17.564096,249.762688 25.628096,250.95232" id="Fill-167"></path>
            </g>
        </g>
    </g>
</svg>